 http://www.shotpix.com/images/51013078752072564413.jpg

General
Complete name                            : Becky G ft. Will.i.am - Problem (The Monster Remix) 1080p [Sbyky].mp4
Format                                   : MPEG-4
Format profile                           : Base Media / Version 2
Codec ID                                 : mp42
File size                                : 128 MiB
Duration                                 : 3mn 23s
Overall bit rate mode                    : Variable
Overall bit rate                         : 5 291 Kbps
Encoded date                             : UTC 2012-09-10 15:52:58
Tagged date                              : UTC 2012-09-10 15:52:58
gsst                                     : 0
gstd                                     : 203755
gssd                                     : BADC237E5HH1358925495100276
gshh                                     :

Video
ID                                       : 1
Format                                   : AVC
Format/Info                              : Advanced Video Codec
Format profile                           : High@L4.0
Format settings, CABAC                   : Yes
Format settings, ReFrames                : 1 frame
Codec ID                                 : avc1
Codec ID/Info                            : Advanced Video Coding
Duration                                 : 3mn 23s
Bit rate                                 : 5 097 Kbps
Maximum bit rate                         : 16.8 Mbps
Width                                    : 1 920 pixels
Height                                   : 1 080 pixels
Display aspect ratio                     : 16:9
Frame rate mode                          : Constant
Frame rate                               : 23.976 fps
Color space                              : YUV
Chroma subsampling                       : 4:2:0
Bit depth                                : 8 bits
Scan type                                : Progressive
Bits/(Pixel*Frame)                       : 0.103
Stream size                              : 124 MiB (96%)
Tagged date                              : UTC 2012-09-10 15:52:58

Audio
ID                                       : 2
Format                                   : AAC
Format/Info                              : Advanced Audio Codec
Format profile                           : LC
Codec ID                                 : 40
Duration                                 : 3mn 23s
Bit rate mode                            : Variable
Bit rate                                 : 192 Kbps
Maximum bit rate                         : 202 Kbps
Channel(s)                               : 2 channels
Channel positions                        : Front: L R
Sampling rate                            : 44.1 KHz
Compression mode                         : Lossy
Stream size                              : 4.66 MiB (4%)
Title                                    : IsoMedia File Produced by Google, 5-11-2011
Encoded date                             : UTC 2012-09-10 15:52:58
Tagged date                              : UTC 2012-09-10 15:52:58

Shared By Sbyky 
http://www.shotpix.com/images/36391391396177178781.gif 
http://www.shotpix.com/images/54442018924177629170.gif